<svg xmlns="http://www.w3.org/2000/svg" width="150" height="150" fill="none"><circle cx="75" cy="75" r="73" stroke="#0082F4" stroke-width="4"/><g fill="#0082F4" clip-path="url(#a)"><path d="M107.179 66.0628H73.4562V45.2586c0-1.5261-1.2416-2.7678-2.7677-2.7678h-8.8508c-1.3442-1.2419-3.1393-2.0024-5.1095-2.0024-1.9703 0-3.7653.7605-5.1096 2.0024h-8.8508c-1.5262 0-2.7678 1.2417-2.7678 2.7678v37.9531c0 1.5261 1.2416 2.7678 2.7678 2.7678H59.937v20.7115c0 1.555 1.2656 2.821 2.8212 2.821h44.4208c1.556 0 2.821-1.266 2.821-2.821V68.8835c0-1.5554-1.265-2.8207-2.821-2.8207Zm-28.3721 3.3679h12.3237V90.912l-5.5797-2.0555c-.3756-.1383-.7886-.1383-1.1642 0L78.807 90.912V69.4307h-.0001ZM56.7282 43.8562c2.2225 0 4.0441 1.7481 4.1631 3.9415H52.565c.1189-2.1935 1.9406-3.9415 4.1632-3.9415Zm-13.3603 2.0025h6.1417c-.1857.6169-.293 1.267-.3132 1.9389h-3.2789c-.9299 0-1.6839.7539-1.6839 1.6839 0 .93.754 1.6839 1.6839 1.6839h21.6213c.93 0 1.6839-.7539 1.6839-1.6839 0-.93-.7539-1.6839-1.6839-1.6839h-3.279c-.0202-.6719-.1277-1.322-.3132-1.9389h6.1417v36.7529H43.3679V45.8587Zm63.2641 60.2853H63.3049V85.9795h7.3835c1.5261 0 2.7676-1.2416 2.7676-2.7678V69.4305h1.9828v23.8964c0 .5506.2692 1.0663.7208 1.3813.2864.1997.6233.3026.9633.3026.196 0 .393-.0341.5819-.1038l7.2637-2.6757 7.2637 2.6757c.5166.1904 1.0937.1161 1.5452-.1988.4516-.315.7208-.8307.7208-1.3813V69.4307h12.1338v36.7133Z"/><path d="m62.3615 62.1051-8.2036 8.2035-3.0633-3.0633c-.6576-.6576-1.7238-.6576-2.3816 0-.6576.6576-.6576 1.7239 0 2.3816l4.2541 4.254c.3159.3159.7442.4932 1.1908.4932.4466 0 .8749-.1773 1.1908-.4932l9.3943-9.3943c.6576-.6576.6576-1.7239 0-2.3815-.6576-.6577-1.7238-.6577-2.3815 0Z"/></g><defs><clipPath id="a"><path fill="#fff" d="M40 40h70v70H40z"/></clipPath></defs></svg>