<svg xmlns="http://www.w3.org/2000/svg" width="150" height="150" fill="none"><path stroke="#0082F4" stroke-width="4" d="M148 75c0 40.317-32.683 73-73 73-40.3168 0-73-32.683-73-73C2 34.6832 34.6832 2 75 2c40.317 0 73 32.6832 73 73Z"/><path fill="#0082F4" d="M89.4071 75.2527c5.1925-3.9619 9.4013-9.0679 12.2989-14.9213 2.898-5.8533 4.407-12.2961 4.409-18.8275 0-.2176-.087-.4262-.24-.58-.154-.1539-.363-.2403-.581-.2403-9.4419-.002-18.614 3.152-26.0581 8.9608-2.8738 2.2382-5.4511 4.8329-7.67 7.7216-.7803.4788-1.6988.6816-2.6082.5758s-1.7568-.5139-2.4065-1.159c-1.0702-1.0703-2.5216-1.6719-4.0352-1.6726-1.5136-.0008-2.9655.5993-4.0369 1.6685l-8.1251 8.0061c-.0773.0763-.1387.1672-.1806.2674-.042.1003-.0635.2079-.0635.3165 0 .1087.0215.2162.0635.3165.0419.1002.1033.1911.1806.2674l4.701 4.643c1.1865 1.1654 2.7038 1.9363 4.3447 2.2075 1.6409.2711 3.3255.0293 4.8239-.6925-.0027.0101-.0057.0199-.0085.0299-.0376.1393-.0378.286-.0006.4254.0372.1394.1105.2665.2125.3686l2.366 2.3663-5.7884 1.2268c-.1445.0306-.2781.0996-.3866.1998-.1085.1002-.1879.2278-.2299.3694-.042.1415-.045.2918-.0087.435.0363.1431.1106.2738.215.3783l2.9121 2.9121c-.6572-.3933-1.3724-.6803-2.1191-.8506-.2376-.0537-.4758-.0957-.7059-.1244-.2879-.0366-.5778-.056-.868-.0581-.9601-.0082-1.9122.1757-2.8002.5408-.888.3651-1.694.9041-2.3707 1.5852-.6987.6872-1.2534 1.5069-1.6317 2.411-.3782.9042-.5724 1.8747-.5711 2.8547-.0001.214.0835.4196.2329.5728.1494.1533.3527.2421.5666.2475l.6187.0158c-1.1973 1.6573-1.7001 3.7166-1.4015 5.7393.0371.186.1378.3533.2847.4733s.3309.1853.5206.1846h2.2411c.2175 0 .4262-.0865.58-.2403.1538-.1538.2403-.3625.2403-.58 0-.2176-.0865-.4263-.2403-.5801-.1538-.1538-.3625-.2403-.58-.2403h-1.4944c-.0232-1.0937.2169-3.1661 2.2032-4.919.1236-.1089.2114-.2525.2521-.4121.0406-.1596.0322-.3277-.0241-.4825-.0563-.1547-.158-.2889-.2918-.385-.1338-.0961-.2934-.1496-.458-.1536l-1.5531-.0391c.1755-1.2536.7597-2.4142 1.6621-3.302.5189-.5222 1.1358-.9368 1.8154-1.22.6795-.2833 1.4083-.4295 2.1445-.4304h.0428c.1305.0009.2615.0078.3924.0178-.501.2953-.9272.7021-1.2454 1.1888-.3183.4867-.5201 1.0402-.5897 1.6175l-.4704 3.8008c-.0143.1153-.0039.2324.0305.3434.0343.111.0919.2135.1689.3006.077.0871.1716.1568.2775.2046.106.0477.2209.0725.3371.0725.0337-.0001.0673-.0021.1008-.0062l3.8007-.4706c.5778-.0711 1.1314-.2742 1.6181-.5934.4867-.3192.8936-.7461 1.189-1.2476.0118.1478.0199.2968.0201.4469.002.7455-.1439 1.4841-.4292 2.1728-.2853.6888-.7043 1.3142-1.2329 1.84-.0778.0758-.1399.1663-.1825.2663-.0426.0999-.0649.2074-.0657.316-.0007.1087.0202.2164.0614.3169.0412.1006.102.1919.1789.2687.0768.0769.1681.1377.2686.1789.1006.0413.2083.0622.317.0614.1086-.0007.216-.023.316-.0656.1-.0426.1905-.1046.2663-.1825.7881-.7875 1.3858-1.7447 1.7472-2.7986.3615-1.0538.4772-2.1764.3383-3.2818-.0274-.2288-.0673-.4613-.1184-.6916-.1693-.7584-.4588-1.4848-.8577-2.1518l2.8502 2.8499c.1028.1028.231.1764.3715.2133.1405.0369.2883.0359.4283-.0031.14-.0389.2672-.1143.3684-.2185.1013-.1042.1731-.2334.208-.3745l1.3976-5.6507 2.1276 2.1277c.1015.1015.2279.1746.3665.2119.1387.0374.2846.0378.4234.0012.0491-.0137.0977-.0274.1467-.0411-.75 1.505-1.0117 3.2065-.7486 4.8673s1.0379 3.1981 2.2163 4.3976l4.6426 4.7299c.1511.1642.3608.2624.5836.2735.223-.011.4327-.1092.5838-.2735l8.0022-8.1347c1.0694-1.0733 1.6699-2.5267 1.6699-4.0418 0-1.5152-.6005-2.9686-1.6699-4.0419-.6411-.6471-1.0482-1.4895-1.1568-2.394-.1086-.9044.0875-1.8193.5573-2.5997Zm15.0589-32.9201c-.05 2.4949-.329 4.9799-.833 7.4238-2.774-1.5371-5.0639-3.8174-6.6128-6.5845 2.4508-.5084 4.9428-.7893 7.4458-.8393ZM56.2074 69.4283l-4.1095-4.0586 7.5363-7.4267c.7633-.7632 1.7985-1.192 2.878-1.192 1.0794 0 2.1146.4288 2.8779 1.192.5958.5924 1.3147 1.0466 2.1056 1.3302.791.2837 1.6346.3899 2.4712.3112-2.1051 3.1232-3.7859 6.5121-4.9985 10.078-1.2192 1.0761-2.8009 1.6503-4.4265 1.6068-1.6257-.0434-3.1745-.7012-4.3345-1.8409Zm8.0117 15.8836c-.1156.4099-.3498.7766-.6731 1.0539-.3234.2773-.7214.4528-1.1442.5047l-2.756.3418.3418-2.7553c.0554-.4311.2383-.8359.5252-1.1623.287-.3264.6649-.5596 1.0854-.6698.3688-.0941.7558-.0894 1.1222.0136.3664.1029.6992.3006.965.573.2657.2725.455.6101.5488.979.0938.3688.0889.7559-.0144 1.1222l-.0007-.0008Zm4.802-1.2957-6.1974-6.1972 5.353-1.1348 2.1306 2.1303-1.2862 5.2017Zm5.593-3.2144-8.6894-8.6894c.1458-.5159.3022-1.0285.4693-1.5378.0049-.005.01-.0093.0149-.0137l-.0078-.0078c1.9754-5.9809 5.2954-11.4293 9.7051-15.9267 4.4098-4.4975 9.7918-7.9242 15.7325-10.0169 1.1599-.4068 2.3336-.759 3.5212-1.0566 1.7706 3.3622 4.524 6.1048 7.8931 7.8622C99.744 65.4175 88.9547 76.83 74.6141 80.8018Zm14.2284 6.3574L81.42 94.6916l-4.0587-4.1094c-1.1565-1.177-1.8161-2.7536-1.8424-4.4035-.0262-1.6499.5829-3.2467 1.7013-4.4599 3.5299-1.1838 6.8873-2.8299 9.9849-4.8954-.0785.8364.0279 1.6799.3116 2.4706.2837.7907.7377 1.5095 1.33 2.1053.7626.7647 1.1905 1.8009 1.1897 2.8809-.0008 1.08-.4302 2.1156-1.1939 2.8793v-.0003Z"/><path fill="#0082F4" d="M61.0832 92.6201c-.435.103-.8806.1545-1.3276.1534h-1.2922c-.2176 0-.4262.0864-.5801.2403-.1538.1538-.2402.3624-.2402.58 0 .2176.0864.4262.2402.5801.1539.1538.3625.2402.5801.2402h1.2922c.5755.0011 1.1491-.0655 1.709-.1985.2116-.0507.3944-.1833.5082-.3688.1137-.1854.1492-.4084.0985-.62-.0507-.2116-.1833-.3944-.3687-.5081-.1855-.1138-.4085-.1493-.6201-.0986h.0007ZM94.0942 75.6719c.191.0002.376-.0665.5228-.1885.5846-.484 1.1643-.991 1.7227-1.5067.0804-.0727.1456-.1606.1918-.2587.0462-.0981.0726-.2043.0775-.3126.0049-.1083-.0118-.2165-.0489-.3184-.0372-.1018-.0942-.1953-.1677-.275-.0735-.0797-.1621-.144-.2607-.1892-.0985-.0453-.205-.0705-.3134-.0743-.1083-.0038-.2163.0139-.3178.0521-.1015.0382-.1944.0961-.2733.1704-.5374.4959-1.0951.9833-1.6572 1.4492-.13.1077-.2236.2529-.2681.4158-.0445.1628-.0376.3355.0197.4943.0573.1588.1621.2961.3003.3931.1382.097.3029.149.4718.1489l.0005-.0004ZM107.642 54.0656c-.103-.0312-.211-.0417-.318-.0311-.107.0107-.212.0424-.306.0932-.095.0509-.179.12-.248.2033-.068.0834-.119.1793-.15.2825-.691 2.2825-1.581 4.4998-2.661 6.6262-.393.7742-.818 1.5467-1.261 2.2958-.545.9202-1.133 1.8309-1.75 2.707-.9779 1.3886-2.0412 2.7153-3.1835 3.9723-.1463.1611-.2227.3736-.2123.5909.0104.2174.1067.4216.2677.568.161.1463.3736.2227.5909.2123.2173-.0104.4216-.1067.5679-.2677 1.1883-1.3076 2.2933-2.6875 3.3103-4.1319.641-.9108 1.254-1.858 1.82-2.8155.462-.7793.903-1.5828 1.312-2.3883 1.124-2.2124 2.05-4.5195 2.769-6.8944.063-.2082.04-.4329-.062-.6246-.103-.1918-.278-.3349-.486-.398ZM42.8696 74.2494c.1078.0002.2145-.021.314-.0622s.1899-.1017.266-.178l.6282-.6282c.1504-.1545.2339-.362.2325-.5777-.0015-.2156-.0878-.422-.2402-.5745-.1525-.1525-.3589-.2388-.5745-.2403-.2156-.0014-.4232.0821-.5777.2324l-.6289.6283c-.1147.1147-.1928.2608-.2244.4199-.0317.1591-.0154.3241.0467.4739.062.1499.1671.278.302.3681.1349.0902.2934.1383.4557.1383h.0006ZM45.8601 71.599l2.8069-2.8068c.0762-.0762.1367-.1666.1779-.2662.0412-.0995.0624-.2062.0625-.3139 0-.1077-.0213-.2144-.0625-.3139-.0412-.0996-.1016-.19-.1778-.2662-.0762-.0762-.1666-.1366-.2661-.1778-.0995-.0412-.2062-.0625-.3139-.0625-.1078 0-.2144.0212-.314.0624-.0995.0413-.1899.1017-.2661.1779l-2.8068 2.8068c-.0772.0759-.1386.1664-.1807.2662s-.064.2069-.0644.3152c-.0005.1083.0205.2156.0617.3157.0413.1001.1019.1911.1785.2677.0765.0766.1675.1372.2676.1785.1001.0412.2074.0623.3157.0618.1083-.0004.2154-.0223.3152-.0643.0998-.042.1903-.1034.2663-.1806ZM43.5255 77.0754c.1539.1538.3625.2403.5801.2403.2175 0 .4262-.0865.58-.2403l3.2994-3.2995c.0762-.0762.1366-.1667.1778-.2662.0413-.0995.0625-.2062.0625-.3139 0-.1078-.0213-.2144-.0625-.314-.0412-.0995-.1017-.1899-.1778-.2661-.0762-.0761-.1667-.1366-.2662-.1778-.0995-.0412-.2062-.0624-.3139-.0624-.1077 0-.2144.0212-.3139.0625-.0996.0412-.19.1016-.2662.1778l-3.2994 3.2994c-.0762.0762-.1366.1667-.1778.2662-.0412.0995-.0625.2062-.0624.3139 0 .1078.0212.2145.0624.314.0413.0995.1017.19.1779.2661ZM49.0179 72.4024c.1077.0001.2144-.0211.3139-.0623.0996-.0412.19-.1017.2661-.1779l1.2198-1.2197c.0772-.0759.1386-.1664.1806-.2662.0421-.0998.064-.2069.0644-.3152.0005-.1083-.0205-.2156-.0617-.3157-.0413-.1002-.1019-.1911-.1785-.2677-.0765-.0766-.1675-.1373-.2676-.1785-.1001-.0413-.2074-.0623-.3157-.0618-.1083.0004-.2154.0223-.3152.0643-.0998.042-.1903.1034-.2663.1806l-1.2198 1.2198c-.1147.1147-.1928.2609-.2244.42-.0316.1591-.0154.324.0467.4739.0621.1498.1672.2779.302.3681.1349.0901.2935.1382.4557.1383ZM45.6603 78.0827l-3.645 3.6446c-.1517.1543-.2364.3622-.2355.5786.0009.2164.0872.4237.2402.5768.1531.153.3604.2393.5768.2402.2164.0009.4243-.0838.5786-.2355l3.6447-3.6447c.0771-.0759.1385-.1664.1806-.2662.042-.0998.0639-.2069.0644-.3152.0004-.1083-.0206-.2156-.0618-.3157-.0413-.1001-.1019-.1911-.1785-.2677-.0766-.0766-.1675-.1372-.2677-.1785-.1001-.0412-.2074-.0622-.3157-.0617-.1083.0004-.2154.0223-.3152.0643-.0998.0421-.1903.1035-.2662.1807h.0003ZM52.9688 71.9338c-.1538-.1538-.3624-.2402-.58-.2402-.2175 0-.4261.0864-.5799.2402l-4.2699 4.2693c-.0772.0759-.1386.1664-.1806.2662-.0421.0998-.064.2069-.0644.3152-.0005.1083.0205.2156.0617.3157.0412.1001.1019.1911.1784.2677.0766.0766.1676.1372.2677.1785.1001.0412.2074.0623.3157.0618.1083-.0004.2154-.0223.3152-.0643.0998-.042.1903-.1034.2662-.1806l4.2699-4.27c.1537-.1538.24-.3623.24-.5798 0-.2174-.0863-.4259-.24-.5797ZM69.1074 98.4098l-.6289.6281c-.1538.1538-.2402.3625-.2402.58 0 .2176.0864.4261.2403.5801.1538.154.3625.24.5801.24.2175 0 .4262-.086.58-.24l.6281-.629c.1518-.1543.2364-.3623.2355-.5787-.0009-.2164-.0873-.4236-.2403-.5766-.1531-.153-.3604-.2394-.5768-.2402-.2164-.0009-.4244.0838-.5786.2356l.0008.0007ZM73.6957 93.8208l-2.8069 2.8068c-.0778.0758-.1399.1663-.1825.2663-.0426.0999-.0649.2074-.0657.316-.0007.1087.0202.2164.0614.3169.0412.1006.102.1919.1789.2687.0768.0769.1681.1377.2686.1789.1006.0413.2083.0621.317.0614.1086-.0007.216-.023.316-.0656.1-.0426.1905-.1047.2663-.1825l2.8068-2.8069c.1504-.1545.2339-.362.2325-.5776-.0015-.2157-.0878-.422-.2403-.5745-.1524-.1525-.3588-.2388-.5744-.2403-.2156-.0015-.4232.082-.5777.2324ZM69.7142 103.264c.1539.154.3625.24.5801.24.2175 0 .4262-.086.58-.24l3.2996-3.2991c.0778-.0758.1399-.1663.1825-.2663.0426-.0999.0649-.2074.0657-.316.0007-.1087-.0201-.2164-.0614-.3169-.0412-.1006-.102-.1919-.1788-.2688-.0769-.0768-.1682-.1376-.2687-.1789-.1006-.0412-.2083-.0621-.3169-.0613-.1087.0007-.2161.023-.3161.0656-.1.0426-.1905.1046-.2663.1825l-3.2995 3.2992c-.1538.154-.2403.363-.2403.58 0 .218.0864.426.2401.58ZM74.627 98.3515c.0762.0762.1666.1367.2662.1779.0995.0412.2062.0625.3139.0625.1078 0 .2144-.0213.314-.0625.0995-.0412.19-.1017.2661-.1779l1.2197-1.2198c.1538-.1538.2402-.3625.2402-.5801 0-.2176-.0865-.4262-.2403-.5801-.1539-.1538-.3626-.2402-.5802-.2402-.2175 0-.4262.0865-.58.2404l-1.2196 1.2196c-.0762.0762-.1366.1667-.1778.2662-.0413.0995-.0625.2062-.0625.3139 0 .1078.0212.2145.0625.314.0412.0995.1016.19.1778.2661ZM71.8487 104.271l-3.6446 3.645c-.0772.076-.1386.166-.1807.266s-.064.207-.0644.315c-.0005.109.0205.216.0618.316.0412.1.1018.191.1784.268.0765.076.1675.137.2676.178.1002.042.2075.063.3157.062.1083 0 .2155-.022.3152-.064.0998-.042.1903-.104.2663-.181l3.6448-3.644c.0772-.076.1385-.167.1806-.267.042-.099.0639-.207.0644-.315.0004-.108-.0206-.215-.0618-.316-.0413-.1-.1019-.191-.1785-.267-.0766-.077-.1675-.137-.2677-.179-.1001-.041-.2074-.062-.3157-.062-.1083.001-.2154.023-.3152.065-.0998.042-.1903.103-.2662.18ZM77.9974 98.1225l-4.27 4.2695c-.0772.076-.1386.167-.1806.267-.0421.1-.0639.207-.0644.315-.0004.108.0206.216.0618.316.0413.1.1019.191.1785.267.0766.077.1675.138.2677.179.1001.041.2074.062.3157.062.1083-.001.2154-.023.3152-.065.0998-.042.1902-.103.2662-.18l4.2699-4.2703c.0772-.0759.1386-.1664.1806-.2662.0421-.0998.064-.2069.0644-.3152.0005-.1083-.0205-.2156-.0617-.3157-.0413-.1001-.1019-.1911-.1785-.2677-.0765-.0766-.1675-.1372-.2676-.1785-.1001-.0412-.2074-.0623-.3157-.0618-.1083.0004-.2154.0223-.3152.0643-.0998.042-.1903.1034-.2663.1806ZM101.226 88.1674c-.672-.2273-1.2833-.6072-1.7846-1.11-.5014-.5029-.8794-1.1151-1.1046-1.7885-.0543-.1634-.1588-.3056-.2985-.4063-.1397-.1007-.3076-.155-.4798-.155-.1722 0-.3401.0543-.4798.155s-.2441.2429-.2985.4063c-.2252.6734-.6032 1.2856-1.1046 1.7885-.5013.5028-1.1123.8827-1.785 1.11-.1631.0545-.305.159-.4055.2986-.1005.1396-.1545.3073-.1545.4793s.054.3397.1545.4793.2424.244.4055.2986c.6727.2272 1.2837.6071 1.785 1.11.5014.5029.8794 1.115 1.1046 1.7885.0544.1634.1588.3055.2985.4063.1397.1007.3076.1549.4798.1549.1722 0 .3401-.0542.4798-.1549.1397-.1008.2442-.2429.2985-.4063.2252-.6735.6032-1.2856 1.1046-1.7885.5013-.5029 1.1126-.8828 1.7846-1.11.164-.0546.305-.159.406-.2986.1-.1396.154-.3073.154-.4793s-.054-.3397-.154-.4793c-.101-.1396-.242-.2441-.406-.2986Zm-3.6675 2.3763c-.4308-.6248-.9713-1.1664-1.5952-1.5984.6239-.432 1.1644-.9736 1.5952-1.5984.4308.6248.9713 1.1664 1.5952 1.5984-.6239.432-1.1644.9736-1.5952 1.5984ZM43.0312 56.774c.6728.2272 1.2838.6071 1.7851 1.11.5013.5029.8793 1.115 1.1045 1.7884.0544.1635.1588.3056.2985.4064.1397.1007.3076.1549.4798.1549.1723 0 .3401-.0542.4798-.1549.1397-.1008.2442-.2429.2986-.4064.2251-.6734.6032-1.2855 1.1045-1.7884.5013-.5029 1.1123-.8828 1.785-1.11.1631-.0546.305-.1591.4055-.2987.1005-.1396.1546-.3072.1546-.4792 0-.172-.0541-.3397-.1546-.4793-.1005-.1396-.2424-.2441-.4055-.2987-.6727-.2272-1.2837-.6071-1.785-1.11-.5013-.5028-.8794-1.115-1.1045-1.7884-.0544-.1634-.1589-.3056-.2986-.4063-.1397-.1008-.3075-.155-.4798-.155-.1722 0-.3401.0542-.4798.155-.1397.1007-.2441.2429-.2985.4063-.2252.6734-.6032 1.2856-1.1045 1.7884-.5013.5029-1.1123.8828-1.7851 1.11-.1631.0546-.3049.1591-.4054.2987-.1005.1396-.1546.3073-.1546.4793s.0541.3396.1546.4792c.1005.1396.2423.2441.4054.2987Zm3.6679-2.3763c.4308.6248.9713 1.1663 1.5953 1.5984-.624.432-1.1645.9735-1.5953 1.5983-.4308-.6248-.9712-1.1663-1.5952-1.5983.624-.4321 1.1644-.9736 1.5952-1.5984ZM57.3686 48.8867c.8294 0 1.5018-.6733 1.5018-1.5039s-.6724-1.5039-1.5018-1.5039c-.8295 0-1.5019.6733-1.5019 1.5039s.6724 1.5039 1.5019 1.5039ZM94.9662 102.344c.8295 0 1.5019-.674 1.5019-1.504 0-.831-.6724-1.5041-1.5019-1.5041-.8294 0-1.5018.6731-1.5018 1.5041 0 .83.6724 1.504 1.5018 1.504ZM86.039 54.7612c-.9858.0006-1.9563.2442-2.8256.7093-.8692.4651-1.6104 1.1373-2.1578 1.9571-.5475.8199-.8844 1.7621-.9809 2.7432-.0965.9811.0504 1.9709.4277 2.8817.3772.9108.9732 1.7145 1.7352 2.34.762.6255 1.6664 1.0535 2.6333 1.2461.9668.1926 1.9663.1439 2.9098-.1419.9435-.2858 1.802-.7998 2.4995-1.4965.8388-.8388 1.4101-1.9075 1.6415-3.071.2314-1.1635.1126-2.3695-.3414-3.4655-.4539-1.0959-1.2227-2.0327-2.2091-2.6917-.9864-.6591-2.146-1.0108-3.3323-1.0108h.0001Zm3.0811 9.079c-.6094.6094-1.3858 1.0244-2.231 1.1926-.8453.1681-1.7214.0818-2.5176-.2479-.7963-.3298-1.4768-.8883-1.9556-1.6049-.4788-.7166-.7344-1.559-.7344-2.4209 0-.8618.2556-1.7042.7344-2.4208.4788-.7166 1.1593-1.2751 1.9556-1.6049.7962-.3297 1.6723-.416 2.5176-.2479.8452.1682 1.6216.5832 2.231 1.1926.8159.8178 1.2742 1.9258 1.2742 3.081 0 1.1553-.4583 2.2633-1.2742 3.0811Z"/></svg>