<svg xmlns="http://www.w3.org/2000/svg" width="150" height="150" fill="none"><circle cx="75" cy="75" r="73" stroke="#0082F4" stroke-width="4"/><path fill="#0082F4" d="m107.762 61.7459-4.902-8.4919c-.292-.5051-.911-.7184-1.452-.5001l-7.2172 2.9134c-.5995.2419-.8893.9239-.6473 1.5234.242.5997.9239.8895 1.5235.6472l6.274-2.5326 3.885 6.7303-5.3231 4.1616c-.3822.2988-.5403.8021-.398 1.2657 1.4741 4.8 1.5311 10.0905 0 15.0739-.1423.4636.0158.9669.398 1.2657l5.3231 4.1616-3.885 6.7303-6.274-2.5326c-.4499-.1819-.9649-.067-1.2953.2882-3.5235 3.7886-8.0344 6.3954-13.0449 7.5386-.4733.1084-.8308.4974-.8986.9784l-.9425 6.692h-7.7714l-.9425-6.692c-.0678-.481-.4253-.87-.8986-.9781-5.0106-1.1432-9.5214-3.7501-13.0449-7.5386-.3304-.3552-.8454-.4701-1.2953-.2882l-6.2738 2.5325-3.8858-6.7302 5.3236-4.1616c.3821-.2988.5403-.8021.3979-1.2657-1.4745-4.8001-1.5308-10.0905 0-15.0739.1424-.4637-.0158-.967-.3979-1.2657l-5.3236-4.1616 3.8858-6.7303 6.2738 2.5326c.4499.1819.9651.067 1.2953-.2882 3.5235-3.7886 8.0344-6.3954 13.0449-7.5386.4733-.108.8308-.497.8986-.978l.9425-6.6922h7.7714l.9425 6.6922c.0678.4808.4253.8698.8986.978 2.7436.6259 5.3515 1.6974 7.751 3.1842.5499.3402 1.2711.1707 1.6114-.3785.3404-.5495.171-1.2711-.3784-1.6116-2.3889-1.4802-4.9674-2.5832-7.6751-3.2846l-.9737-6.9134c-.0813-.5775-.5757-1.0072-1.159-1.0072h-9.8057c-.5833 0-1.0777.4297-1.159 1.0072l-.9737 6.9134c-4.8952 1.2668-9.3234 3.8258-12.8906 7.4498l-6.4815-2.6164c-.5409-.2185-1.1601-.0051-1.4518.5001l-4.9029 8.492c-.2918.5052-.1668 1.1481.2927 1.5074l5.5005 4.3c-1.3382 4.8556-1.3385 10.0365 0 14.8933l-5.5005 4.3c-.4595.3593-.5845 1.0022-.2927 1.5074l4.9029 8.492c.2917.5052.9107.7185 1.4518.5l6.4815-2.6164c3.5672 3.6241 7.9954 6.1829 12.8906 7.4499l.9737 6.913c.0812.577.5755 1.007 1.1589 1.007h9.8056c.5834 0 1.0777-.43 1.1591-1.007l.9736-6.914c4.8952-1.266 9.3235-3.8254 12.8906-7.4495l6.4819 2.6165c.541.2181 1.16.0052 1.452-.5001l4.902-8.492c.292-.5052.167-1.1481-.292-1.5074l-5.501-4.3c1.338-4.8556 1.339-10.0365 0-14.8933l5.501-4.3c.459-.3592.584-1.0019.292-1.5073Zm-34.6793 7.6862 5.8523 9.9488c.3277.5573.1418 1.2747-.4154 1.6024-.557.3276-1.2744.1418-1.6023-.4154L71.065 70.619c-.3277-.5572-.1418-1.2746.4154-1.6023.5574-.3277 1.2747-.1416 1.6023.4154ZM68.5122 79.487c-.4569.4568-1.1979.4569-1.6552 0l-3.6594-3.6594c-.4568-.4569-.4571-1.1981 0-1.6553l3.6594-3.6595c.4573-.457 1.1982-.4569 1.6552 0 .4572.4572.4572 1.1983 0 1.6553l-2.8318 2.8317 2.8318 2.8316c.4572.4574.4572 1.1984 0 1.6556Zm13.6569-9.317c.2995 0 .5992.1143.8277.3428l3.6594 3.6596c.4568.4569.4571 1.1981 0 1.6553l-3.6594 3.6595c-.4571.4569-1.1981.4569-1.6552 0-.4572-.4572-.4572-1.1983 0-1.6554l2.8318-2.8316-2.8318-2.8318c-.7399-.7401-.2058-1.9984.8275-1.9984ZM68.1503 56.3184c2.2341-.8192 4.5504-1.227 6.861-1.2268 14.4589.0007 24.1492 15.098 18.0418 28.2755-4.6135 9.9542-16.4654 14.2995-26.4202 9.6861-12.6554-5.8654-15.5248-22.7294-5.4031-32.4234.4668-.4473 1.2079-.4312 1.6549.0357.4471.4667.4311 1.2077-.0357 1.6548-8.9249 8.5482-6.4042 23.431 4.7681 28.609C76.401 95 86.8583 91.1662 90.929 82.3827c4.0708-8.7832.2369-19.241-8.5466-23.3118-4.255-1.9721-9.0233-2.169-13.4267-.5547-.6068.2222-1.2793-.0892-1.5019-.696-.2222-.607.0894-1.2794.6965-1.5018Z"/></svg>