<svg xmlns="http://www.w3.org/2000/svg" width="31" height="31" fill="none"><path fill="#fff" d="M23.25 0H7.75C3.46979 0 0 3.46979 0 7.75v15.5C0 27.5302 3.46979 31 7.75 31h15.5c4.2802 0 7.75-3.4698 7.75-7.75V7.75C31 3.46979 27.5302 0 23.25 0Z"/><path fill="#C3C3C3" d="M21.7 14.5235c.1913 1.29-.029 2.6074-.6296 3.765-.6007 1.1575-1.551 2.0962-2.7158 2.6825-1.1649.5863-2.485.7904-3.7725.5832-1.2875-.2072-2.4769-.8151-3.3991-1.7372-.9221-.9222-1.52997-2.1116-1.73715-3.3991-.20719-1.2875-.00311-2.6076.58315-3.7724.5864-1.1649 1.525-2.1152 2.6826-2.71585 1.1575-.60062 2.475-.82096 3.7649-.62967 1.3159.19512 2.5341.80822 3.4747 1.74892.9406.9406 1.5537 2.1587 1.7488 3.4746Z"/><path stroke="#C3C3C3" stroke-linecap="round" stroke-linejoin="round" stroke-width="2" d="M24.025 6.97498h.016"/></svg>