<svg xmlns="http://www.w3.org/2000/svg" width="40" height="29" fill="none"><path fill="#fff" stroke="#fff" stroke-linecap="round" stroke-linejoin="round" d="M38.2045 5.22639c-.2052-.82884-.623-1.58826-1.2113-2.20155-.5884-.61329-1.3263-1.05873-2.1394-1.29133C31.883 1 20 1 20 1S8.11698 1 5.14623 1.80336c-.81308.2326-1.55105.67804-2.13938 1.29133-.58834.61329-1.00619 1.37271-1.21136 2.20156-.54369 3.04851-.80964 6.14105-.7945 9.23865-.019383 3.121.24658 6.2371.7945 9.3086.22619.8031.65341 1.5336 1.24037 2.121.58696.5874 1.31383 1.0118 2.11037 1.2321C8.11698 28 20 28 20 28s11.883 0 14.8538-.8034c.8131-.2326 1.551-.678 2.1394-1.2913.5883-.6133 1.0061-1.3727 1.2113-2.2015.5395-3.0256.8054-6.0945.7945-9.1689.0194-3.1209-.2466-6.23704-.7945-9.30851Z"/><path fill="#C3C3C3" d="M15 19.5702c0 .0077.0083.0125.0149.0087l9.2783-5.2765c.0068-.0038.0068-.0136 0-.0174l-9.2783-5.2765c-.0066-.00379-.0149.00102-.0149.00869V19.5702Z"/></svg>